<?xml version="1.0" encoding="utf-8"?><!-- Uploaded to: SVG Repo, www.svgrepo.com, Generator: SVG Repo Mixer Tools -->
<svg fill="#000000" width="800px" height="800px" viewBox="0 0 24 24" id="conversation-alt" data-name="Flat Line" xmlns="http://www.w3.org/2000/svg" class="icon flat-line"><path id="secondary" d="M17,4v8a1,1,0,0,1-1,1H7L3,17V4A1,1,0,0,1,4,3H16A1,1,0,0,1,17,4Z" style="fill: rgb(44, 169, 188); stroke-width: 2;"></path><path id="primary" d="M8,17h9l4,4V7a1,1,0,0,0-1-1H17" style="fill: none; stroke: rgb(0, 0, 0); stroke-linecap: round; stroke-linejoin: round; stroke-width: 2;"></path><path id="primary-2" data-name="primary" d="M17,4v8a1,1,0,0,1-1,1H7L3,17V4A1,1,0,0,1,4,3H16A1,1,0,0,1,17,4Z" style="fill: none; stroke: rgb(0, 0, 0); stroke-linecap: round; stroke-linejoin: round; stroke-width: 2;"></path></svg>