<?xml version="1.0" encoding="UTF-8" standalone="no"?> <svg xmlns="http://www.w3.org/2000/svg" viewBox="0 0 64 64"><g id="Layer_4" data-name="Layer 4"><path d="M61,32a1,1,0,0,0-.36-.86c.59-.6.18-1.58.19-2.32a1,1,0,0,0-.44-.72c.52-.66,0-1.59-.06-2.33a1,1,0,0,0-.51-.67c.44-.71-.16-1.57-.32-2.3a1,1,0,0,0-.57-.61c.36-.75-.33-1.55-.56-2.26a1,1,0,0,0-.64-.54c.28-.79-.48-1.51-.79-2.18a1,1,0,0,0-.7-.48c.2-.81-.64-1.44-1-2.09a1,1,0,0,0-.74-.39c.11-.84-.79-1.37-1.24-2a1,1,0,0,0-.77-.32c0-.84-.94-1.28-1.44-1.83a1,1,0,0,0-.81-.23,1,1,0,0,0-.39-.75c-.63-.39-1.25-1.25-2.06-1.06C47.61,7.24,46.58,7,46,6.58a1,1,0,0,0-.84-.06c-.24-.8-1.28-.92-1.94-1.28a1,1,0,0,0-.84,0C42,4.49,41,4.49,40.28,4.2a1,1,0,0,0-.83.12C39,3.59,38,3.69,37.28,3.48a1,1,0,0,0-.82.21C36,3,35,3.22,34.22,3.08a1,1,0,0,0-.79.3C33.11,2.93,32.5,3,32,3s-1.25-.11-1.62.39c-.61-.58-1.57-.14-2.32-.12a1,1,0,0,0-.71.45c-.67-.5-1.58,0-2.32.12a1,1,0,0,0-.65.53c-.73-.43-1.58.19-2.3.37a1,1,0,0,0-.6.59C20.72,5,20,5.7,19.25,6a1,1,0,0,0-.53.65c-.8-.26-1.49.52-2.16.85a1,1,0,0,0-.46.7C15.28,8,14.67,8.83,14,9.23a1,1,0,0,0-.38.75,1,1,0,0,0-.81.24c-.5.55-1.45,1-1.43,1.83a1,1,0,0,0-.77.33c-.44.6-1.35,1.14-1.23,2a1,1,0,0,0-.74.4c-.37.65-1.21,1.29-1,2.1-.82.17-1,1.21-1.44,1.83a1,1,0,0,0,0,.84c-.8.26-.89,1.31-1.24,2a1,1,0,0,0,0,.84c-.76.34-.74,1.39-1,2.09a1,1,0,0,0,.14.83c-.72.43-.59,1.47-.79,2.19a1,1,0,0,0,.23.81c-.67.5-.42,1.52-.54,2.26a1,1,0,0,0,.31.78c-.61.57-.27,1.56-.31,2.3a1,1,0,0,0,.4.75c-.56.62-.1,1.58-.07,2.32a1,1,0,0,0,.47.7c-.48.68.07,1.58.19,2.32a1,1,0,0,0,.54.64c-.41.73.24,1.56.43,2.28a1,1,0,0,0,.61.58c-.33.77.4,1.53.67,2.23a1,1,0,0,0,.67.51c-.24.8.56,1.47.9,2.14a1,1,0,0,0,.72.44c-.15.82.72,1.41,1.13,2a1,1,0,0,0,.76.36c-.07.83.86,1.33,1.33,1.9a1,1,0,0,0,.8.28,1,1,0,0,0,.34.77c.61.42,1.18,1.31,2,1.17.1.84,1.12,1.12,1.7,1.59a1,1,0,0,0,.84.1c.19.82,1.23,1,1.87,1.39a1,1,0,0,0,.84,0c.28.79,1.33.85,2,1.18a1,1,0,0,0,.83-.07c.37.75,1.42.7,2.12,1A1,1,0,0,0,26,60c.44.72,1.47.55,2.21.73a1,1,0,0,0,.8-.25c.51.66,1.52.39,2.27.49a1,1,0,0,0,.77-.33c.58.6,1.57.22,2.31.25a1,1,0,0,0,.73-.42c.65.54,1.59.07,2.33,0a1,1,0,0,0,.68-.49c.7.47,1.58-.11,2.32-.24a1,1,0,0,0,.63-.56c.74.39,1.55-.28,2.27-.49a1,1,0,0,0,.56-.62c.78.3,1.52-.45,2.21-.73a1,1,0,0,0,.49-.68c.81.22,1.46-.6,2.12-1A1,1,0,0,0,49.1,55c.82.14,1.39-.75,2-1.18a1,1,0,0,0,.34-.77c.84.05,1.3-.89,1.87-1.38a1,1,0,0,0,.26-.8c.83,0,1.2-1,1.71-1.57a1,1,0,0,0,.17-.83,1,1,0,0,0,.72-.44c.34-.66,1.15-1.34.9-2.14.81-.22,1-1.26,1.35-1.91a1,1,0,0,0,0-.84c.78-.3.82-1.35,1.13-2a1,1,0,0,0-.09-.83c.74-.39.67-1.43.9-2.14a1,1,0,0,0-.18-.82c.7-.47.51-1.5.67-2.23a1,1,0,0,0-.27-.8C61.22,33.74,60.92,32.75,61,32Zm-2,0c.08.71-.28,1.6.24,2.18-.6.49-.39,1.43-.58,2.11a1,1,0,0,0,.2.77c-.65.43-.54,1.38-.8,2a1,1,0,0,0,.11.78c-.69.36-.68,1.32-1,1.95a1,1,0,0,0,0,.79c-.72.28-.81,1.24-1.21,1.83a1,1,0,0,0-.06.79c-.75.2-.95,1.14-1.41,1.68a1,1,0,0,0-.14.79c-.77.11-1.06,1-1.57,1.52a1,1,0,0,0-.23.76c-.77,0-1.16.92-1.72,1.35a1,1,0,0,0-.3.73c-.78,0-1.25.79-1.86,1.16a1,1,0,0,0-.38.7c-.76-.13-1.33.65-2,1a1,1,0,0,0-.45.65c-.75-.21-1.38.5-2.06.74a1,1,0,0,0-.51.6c-.72-.28-1.43.35-2.13.52a1,1,0,0,0-.57.54c-.69-.36-1.47.2-2.18.29a1,1,0,0,0-.63.48c-.64-.44-1.47,0-2.19,0a1,1,0,0,0-.68.41c-.59-.5-1.47-.12-2.18-.18a1,1,0,0,0-.72.33c-.54-.55-1.46-.27-2.16-.4a1,1,0,0,0-.74.25c-.48-.61-1.43-.42-2.1-.63a1,1,0,0,0-.77.18c-.41-.66-1.37-.57-2-.85a1,1,0,0,0-.79.09c-.33-.7-1.3-.71-1.92-1.06a1,1,0,0,0-.79,0c-.26-.73-1.22-.85-1.8-1.26a1,1,0,0,0-.78-.08c-.18-.75-1.12-1-1.65-1.44a1,1,0,0,0-.78-.17c-.1-.77-1-1.08-1.49-1.61a1,1,0,0,0-.75-.24c0-.78-.89-1.19-1.31-1.76a1,1,0,0,0-.72-.32c.07-.77-.76-1.27-1.11-1.89a1,1,0,0,0-.69-.39c.15-.77-.62-1.35-.91-2a1,1,0,0,0-.63-.46c.22-.74-.47-1.4-.69-2.08a1,1,0,0,0-.59-.53c.3-.71-.32-1.44-.46-2.14a1,1,0,0,0-.53-.59c.38-.68-.16-1.47-.23-2.18a1,1,0,0,0-.46-.64c.44-.63,0-1.48,0-2.19a1,1,0,0,0-.39-.69c.51-.58.15-1.47.23-2.18a1,1,0,0,0-.31-.73c.57-.52.3-1.45.45-2.14a1,1,0,0,0-.23-.76c.62-.46.45-1.41.68-2.08a1,1,0,0,0-.15-.77c.67-.39.6-1.36.9-2a1,1,0,0,0-.07-.79C7,22.47,7,21.51,7.38,20.9a1,1,0,0,0,0-.8c.74-.23.88-1.19,1.31-1.76a1,1,0,0,0,.1-.78c.76-.16,1-1.09,1.49-1.61a1,1,0,0,0,.18-.78c.77-.07,1.11-1,1.65-1.44a1,1,0,0,0,.26-.75c.78,0,1.21-.85,1.79-1.26a1,1,0,0,0,.34-.72c.77.09,1.29-.72,1.92-1.06a1,1,0,0,0,.41-.67c.76.16,1.36-.59,2-.86a1,1,0,0,0,.48-.63c.73.25,1.41-.43,2.09-.63A1.09,1.09,0,0,0,22,6.58c.7.32,1.44-.29,2.15-.41a1,1,0,0,0,.6-.52c.67.4,1.47-.12,2.18-.17A1,1,0,0,0,27.57,5c.62.47,1.47,0,2.19.06a1,1,0,0,0,.7-.37c.37.41,1,.26,1.5.28h.67a1,1,0,0,0,.74-.3c.5.59,1.44.34,2.13.51A1,1,0,0,0,36.26,5c.44.63,1.4.49,2.06.73a1,1,0,0,0,.78-.13c.38.68,1.34.64,2,.95a1,1,0,0,0,.79,0c.3.72,1.26.78,1.86,1.16a1,1,0,0,0,.79,0c.22.74,1.17.91,1.73,1.35a1,1,0,0,0,.78.12c.14.76,1.07,1,1.58,1.53a1,1,0,0,0,.76.2c.06.77,1,1.13,1.4,1.68a1,1,0,0,0,.74.28c0,.78.83,1.23,1.22,1.83a1,1,0,0,0,.71.35c-.11.77.68,1.31,1,1.94a1,1,0,0,0,.67.43c-.19.76.54,1.38.8,2a1,1,0,0,0,.61.5c-.26.73.4,1.42.59,2.11a1,1,0,0,0,.55.56c-.34.69.25,1.45.36,2.16a1,1,0,0,0,.49.62c-.41.65.09,1.47.12,2.18a1,1,0,0,0,.43.67c-.48.61-.07,1.47-.11,2.19a1,1,0,0,0,.35.71A1.05,1.05,0,0,0,59,32Z"/><path d="M32,9.47A22.56,22.56,0,0,0,9.47,32c1.24,29.88,43.82,29.88,45.06,0A22.56,22.56,0,0,0,32,9.47ZM47.84,19C45,22.45,40,25.1,39.58,24.42c-.68-.42,2-5.37,5.47-8.25A20.94,20.94,0,0,1,47.84,19ZM52.13,28c-15.21-.53-15.2,8.51,0,8a20.39,20.39,0,0,1-3.08,7.42c-10.38-11.12-16.75-4.72-5.64,5.64A20.39,20.39,0,0,1,36,52.13c.53-15.21-8.51-15.2-8,0a20.39,20.39,0,0,1-7.42-3.08C31.71,38.67,25.32,32.3,15,43.41A20.39,20.39,0,0,1,11.87,36c15.21.53,15.2-8.51,0-8A20.39,20.39,0,0,1,15,20.59c9.74,10.7,17.17,5.33,5.64-5.64A20.39,20.39,0,0,1,28,11.87c-.53,15.21,8.51,15.2,8,0A20.39,20.39,0,0,1,43.41,15c-11.54,11-4.08,16.32,5.64,5.64A20.39,20.39,0,0,1,52.13,28Zm.4,4c0,.67,0,1.32-.1,2-4.54.42-9.87-1.18-9.71-2-.15-.79,5.17-2.39,9.71-2C52.49,30.68,52.53,31.33,52.53,32ZM11.47,32c0-.67,0-1.32.1-2,4.54-.42,9.87,1.18,9.71,2,.15.79-5.17,2.39-9.71,2C11.51,33.32,11.47,32.67,11.47,32ZM34,11.57c.42,4.54-1.18,9.87-2,9.71-.79.15-2.39-5.17-2-9.71A20,20,0,0,1,34,11.57ZM19,16.16c3.49,2.89,6.15,7.84,5.47,8.26-.42.68-5.37-2-8.26-5.47A21.63,21.63,0,0,1,19,16.16ZM16.16,45.05c2.89-3.49,7.85-6.15,8.26-5.47.68.42-2,5.37-5.47,8.26A21.63,21.63,0,0,1,16.16,45.05ZM30,52.43c-.42-4.54,1.18-9.87,2-9.71.79-.15,2.39,5.17,2,9.71A20,20,0,0,1,30,52.43Zm15-4.59C41.56,45,38.9,40,39.58,39.58c.42-.68,5.37,2,8.26,5.47A21.63,21.63,0,0,1,45.05,47.84Z"/><path d="M32,28a4,4,0,0,0,0,8A4,4,0,0,0,32,28Zm0,6a2,2,0,0,1,0-4A2,2,0,0,1,32,34Z"/><path d="M35.35,24.83a1.26,1.26,0,1,0-.53,2.41A1.26,1.26,0,0,0,35.35,24.83Z"/><path d="M38.79,28.59a1.26,1.26,0,0,0-1.07,2.28A1.26,1.26,0,0,0,38.79,28.59Z"/><path d="M38.56,33.67a1.26,1.26,0,1,0-.1,2.34h0A1.27,1.27,0,0,0,38.56,33.67Z"/><path d="M34.8,37.11a1.26,1.26,0,0,0-1.06,2.29A1.26,1.26,0,0,0,34.8,37.11Z"/><path d="M29.72,36.88A1.28,1.28,0,0,0,28,38.46h0C29,40.62,31.78,38.1,29.72,36.88Z"/><path d="M26.28,33.13a1.26,1.26,0,0,0-1.07,2.28A1.26,1.26,0,0,0,26.28,33.13Z"/><path d="M25.54,28h0a1.26,1.26,0,0,0,.86,2.37A1.26,1.26,0,0,0,25.54,28Z"/><path d="M29.2,26.89a1.26,1.26,0,0,0,1.06-2.29A1.26,1.26,0,0,0,29.2,26.89Z"/></g></svg>