<?xml version="1.0" encoding="UTF-8"?>
<svg width="512" height="512" version="1.1" viewBox="0 0 135.47 135.47" xmlns="http://www.w3.org/2000/svg">
 <g transform="matrix(.99998 0 0 .99998 1083.7 .01328)">
  <path d="m-1016 10.438c-3.6 1e-3 -7.3 0.356-10.9 1.059a3.1753 3.1753 0 0 0-2.4 2.084l-4.5 12.99-12.3-5.717a3.1753 3.1753 0 0 0-3.2 0.299c-5.7 4.081-10.6 9.175-14.5 15.025a3.1753 3.1753 0 0 0-0.2 3.141l5.9 12.076-12.3 4.543a3.1753 3.1753 0 0 0-2.1 2.463c-0.5 3.08-0.7 6.195-0.7 9.316 0 3.992 0.4 7.973 1.2 11.877a3.1753 3.1753 0 0 0 2.1 2.344l12.2 4.197-5.3 11.479a3.1753 3.1753 0 0 0 0.3 3.156c4.1 5.92 9.4 10.99 15.5 14.94a3.1753 3.1753 0 0 0 3.1 0.19l11.2-5.46 4.3 11.59a3.1753 3.1753 0 0 0 2.4 2.03c3.4 0.62 6.8 0.93 10.2 0.94a3.1753 3.1753 0 0 0 0 0c3.9-0.01 7.7-0.39 11.5-1.16a3.1753 3.1753 0 0 0 2.3-2.08l4.04-11.69 11.32 5.24a3.1753 3.1753 0 0 0 3.13-0.26c5.98-4.08 11.14-9.25 15.19-15.251a3.1753 3.1753 0 0 0 0.22-3.169l-5.54-11.377 12.12-4.457a3.1753 3.1753 0 0 0 2.03-2.389c0.67-3.524 1.01-7.103 1.01-10.69-0.01-3.522-0.33-7.037-0.98-10.5a3.1753 3.1753 0 0 0-2.09-2.419l-12.46-4.288 5.64-12.207a3.1753 3.1753 0 0 0-0.27-3.136c-3.98-5.765-8.98-10.751-14.76-14.709a3.1753 3.1753 0 0 0-3.19-0.233l-12.25 5.981-4.76-12.897a3.1753 3.1753 0 0 0-2.4-2.033c-3.2-0.556-6.5-0.838-9.8-0.838zm0 6.352c2.4 0 4.7 0.276 7 0.591l5.2 14.315a3.1753 3.1753 0 0 0 4.39 1.758l13.58-6.631c4.06 2.998 7.65 6.569 10.66 10.627l-6.28 13.588a3.1753 3.1753 0 0 0 1.85 4.336l13.86 4.767c0.38 2.512 0.7 5.036 0.7 7.578 0 2.617-0.33 5.217-0.73 7.801l-13.56 4.986a3.1753 3.1753 0 0 0-1.76 4.372l6.2 12.716c-3.1 4.256-6.83 8.006-11.08 11.116l-12.71-5.88a3.1753 3.1753 0 0 0-4.32 1.85l-4.6 13.2c-2.7 0.47-5.5 0.76-8.4 0.76-2.4 0-4.9-0.31-7.4-0.67l-4.7-13.03a3.1753 3.1753 0 0 0-4.4-1.75l-12.6 6.14c-4.3-3.03-8.1-6.7-11.3-10.89l5.9-12.832a3.1753 3.1753 0 0 0-1.8-4.334l-13.8-4.721c-0.5-2.919-0.8-5.869-0.8-8.836 0-2.182 0.3-4.352 0.5-6.515l13.8-5.061a3.1753 3.1753 0 0 0 1.8-4.373l-6.6-13.441c2.9-4.124 6.4-7.77 10.4-10.856l13.7 6.34a3.1753 3.1753 0 0 0 4.4-1.849l4.9-14.401c2.7-0.422 5.3-0.771 8-0.771z" style="-inkscape-stroke:none;color:#000000;paint-order:fill markers stroke;stroke-linecap:round;stroke-linejoin:round"/>
  <path d="m-1016 35.28c-17.8 0-32.4 14.559-32.4 32.437s14.6 32.433 32.4 32.433c17.91 0 32.47-14.555 32.47-32.433s-14.56-32.437-32.47-32.437zm0 6.35c14.5 0 26.12 11.641 26.12 26.087 0 14.447-11.62 26.09-26.12 26.09-14.4 0-26.1-11.643-26.1-26.09 0-14.446 11.7-26.087 26.1-26.087z" style="-inkscape-stroke:none;color:#000000;paint-order:fill markers stroke;stroke-linecap:round;stroke-linejoin:round"/>
  <path d="m-1015.9 47.868a3.1753 3.1753 0 0 0-3.2 3.177v2.392c-3.4 1.299-5.9 4.609-5.9 8.438 0 4.943 4.1 9.028 9.1 9.028 1.5 0 2.6 1.156 2.6 2.656 0 1.524-1.1 2.678-2.6 2.678v0c-0.8 0-1.4-0.291-1.9-0.783a3.1753 3.1753 0 0 0-4.5-0.027 3.1753 3.1753 0 0 0 0 4.493c0.9 0.908 2 1.625 3.2 2.085v2.389a3.1753 3.1753 0 0 0 3.2 3.178 3.1753 3.1753 0 0 0 3.1-3.178v-2.392c3.4-1.296 5.9-4.609 5.9-8.443 0-4.942-4.1-9.009-9-9.009-1.5 0-2.7-1.164-2.7-2.675 0-1.513 1.1-2.67 2.7-2.67 0.7 0 1.4 0.294 1.8 0.781a3.1753 3.1753 0 0 0 4.5-5e-3 3.1753 3.1753 0 0 0 0-4.49c-0.9-0.895-2-1.604-3.2-2.062v-2.384a3.1753 3.1753 0 0 0-3.1-3.177z" style="-inkscape-stroke:none;color:#000000;stroke-linecap:round;stroke-linejoin:round"/>
 </g>
</svg>
