<svg version="1.1" xmlns="http://www.w3.org/2000/svg" xmlns:xlink="http://www.w3.org/1999/xlink" x="0px" y="0px" width="512px" height="512px" viewBox="0 0 512 512" style="enable-background:new 0 0 512 512;" xml:space="preserve">
<g id="A25__x2C_Cog__x2C_Wheel__x2C_Gear__x2C_Dollar__x2C_Services">
	<g>
		<path d="M256,186c-31.665,0-60.165,22.207-67.894,52.925c-7.792,30.971,7.071,64.077,35.264,78.994
			c28.312,14.979,64.116,8.251,85.221-15.77c21.126-24.045,23.064-60.46,4.526-86.575C300.077,197.203,278.542,186,256,186z
			 M256,306c-27.217,0-50-22.783-50-50s22.783-50,50-50s50,22.783,50,50S283.217,306,256,306z" id="id_121" style="fill: rgb(52, 64, 84);"></path>
		<path d="M474.035,212.864l-56.58-5.904c-3.166-10.508-7.4-20.719-12.645-30.495l35.911-44.111c3.24-3.979,2.941-9.766-0.69-13.392
			l-47.008-46.915c-3.627-3.617-9.397-3.912-13.369-0.685l-44.111,35.83c-9.812-5.268-20.026-9.507-30.504-12.656l-5.903-56.571
			c-0.532-5.093-4.825-8.962-9.946-8.962h-66.379c-5.121,0-9.415,3.869-9.946,8.962l-5.903,56.579
			c-10.511,3.167-20.726,7.403-30.503,12.649l-44.112-35.831c-3.977-3.229-9.752-2.932-13.376,0.691l-46.916,46.915
			c-3.623,3.624-3.921,9.399-0.69,13.376l35.831,44.113c-5.246,9.777-9.481,19.99-12.649,30.502l-56.58,5.904
			c-5.093,0.531-8.962,4.824-8.962,9.945v66.38c0,5.121,3.869,9.414,8.962,9.945l56.572,5.904
			c3.149,10.479,7.388,20.693,12.656,30.504l-35.83,44.111c-3.229,3.974-2.933,9.744,0.684,13.368l46.916,47.008
			c3.625,3.632,9.411,3.932,13.392,0.691l44.111-35.911c9.775,5.244,19.987,9.479,30.495,12.645l5.903,56.58
			c0.531,5.093,4.825,8.962,9.946,8.962h66.379c5.121,0,9.414-3.869,9.946-8.962l5.903-56.572
			c10.476-3.148,20.687-7.385,30.497-12.651l44.109,35.91c3.976,3.237,9.758,2.942,13.385-0.684l47.008-47.008
			c3.626-3.627,3.921-9.408,0.684-13.385l-35.91-44.11c5.267-9.81,9.503-20.021,12.651-30.496l56.572-5.904
			c5.093-0.531,8.962-4.824,8.962-9.945v-66.38C482.997,217.688,479.128,213.396,474.035,212.864z M462.997,280.179l-54.389,5.676
			c-10.541,1.1-11.532,18.093-14.675,25.858c-2.143,5.294-4.6,10.46-7.343,15.468c-2.794,5.1-5.962,10.328-1.592,15.697
			l34.513,42.394l-34.24,34.24l-42.394-34.513c-4.414-3.594-9.121-2.129-13.542,0.388c-5.678,3.232-11.566,6.096-17.623,8.547
			c-7.767,3.144-24.758,4.133-25.858,14.675l-5.676,54.389h-48.357l-5.676-54.389c-1.101-10.548-18.129-11.557-25.901-14.702
			c-5.285-2.139-10.443-4.589-15.444-7.327c-5.093-2.789-10.317-5.946-15.678-1.58l-42.387,34.507l-34.168-34.235l34.441-42.401
			c3.586-4.414,2.12-9.116-0.396-13.534c-3.232-5.677-6.095-11.564-8.546-17.621c-3.144-7.766-4.135-24.76-14.676-25.859
			l-54.389-5.676V231.82l54.388-5.675c10.549-1.101,11.558-18.131,14.704-25.903c2.139-5.284,4.589-10.443,7.327-15.443
			c2.787-5.091,5.942-10.307,1.587-15.668l-34.437-42.396l34.163-34.163l42.396,34.437c4.41,3.58,9.109,2.123,13.523-0.39
			c5.667-3.226,11.545-6.079,17.589-8.525c7.773-3.146,24.802-4.155,25.902-14.703l5.676-54.388h48.357l5.676,54.388
			c1.101,10.542,18.092,11.532,25.859,14.676c5.293,2.143,10.459,4.6,15.468,7.343c5.095,2.792,10.319,5.962,15.688,1.6
			l42.402-34.442l34.235,34.168l-34.508,42.388c-3.589,4.409-2.133,9.114,0.382,13.531c3.226,5.667,6.079,11.546,8.525,17.59
			c3.146,7.772,4.155,24.802,14.702,25.902l54.389,5.675V280.179z" id="id_122" style="fill: rgb(52, 64, 84);"></path>
		<path d="M256.051,144.234c-65.379,0-117.983,58.452-111.213,123.462c6.758,64.894,70.359,111.074,134.162,97.699
			c55.325-11.597,94.002-64.828,88.163-121.001C361.33,188.281,312.454,144.234,256.051,144.234z M256.051,347.766
			c-31.479,0-61.343-16.663-77.992-43.361c-16.892-27.087-18.295-61.984-3.646-90.349c14.354-27.79,42.637-46.854,73.829-49.492
			c31.547-2.67,62.783,11.55,81.587,37.001c20.501,27.747,23.611,65.762,7.769,96.435
			C321.989,328.22,290.082,347.766,256.051,347.766z" id="id_123" style="fill: rgb(52, 64, 84);"></path>
		<path d="M275.574,255.434c-3.902-3.354-9.182-4.882-14.05-6.221l-2.784-0.695v-11.832c3.844,0.551,11.38,2.361,13.92,5.742
			l6.264-11.832c-5.92-3.385-12.396-5.982-19.227-6.612v-8.787h-6.003v8.787c-9.082,0.949-17.596,6.149-19.444,15.649
			c-2.354,12.1,5.764,18.12,16.226,21.326l4.176,1.218v11.571c-5.013-0.694-13.794-2.858-17.14-7.047l-6.264,12.441
			c6.608,4.403,14.574,6.796,22.446,7.481v10.179h6.003v-10.092c6.917-0.291,14.438-2.574,18.37-8.692
			C282.376,271.313,281.807,260.791,275.574,255.434C273.922,254.014,277.229,256.855,275.574,255.434z M254.651,247.3
			c-6.813-2.14-8.438-9.979,0-10.701V247.3z M258.74,273.922v-10.44C265.792,265.901,268.271,273.551,258.74,273.922z" id="id_124" style="fill: rgb(52, 64, 84);"></path>
	</g>
</g>
<g id="Layer_1">
</g>
</svg>